<mxfile host="Electron" modified="2024-07-11T14:28:52.837Z" agent="Mozilla/5.0 (X11; Linux x86_64) AppleWebKit/537.36 (KHTML, like Gecko) draw.io/24.6.4 Chrome/124.0.6367.207 Electron/30.0.6 Safari/537.36" etag="QhvjwAtVB5_DBjn2coE-" version="24.6.4" type="device">
  <diagram name="Page-1" id="JtFFG6P05M1jF84zP3eQ">
    <mxGraphModel dx="2390" dy="1440" grid="1" gridSize="10" guides="1" tooltips="1" connect="1" arrows="1" fold="1" page="1" pageScale="1" pageWidth="1169" pageHeight="827" math="0" shadow="0">
      <root>
        <mxCell id="0" />
        <mxCell id="1" parent="0" />
        <mxCell id="LTmVK6CKk13TITAyTzfu-14" value="hasPhysicalMeasure" style="edgeStyle=orthogonalEdgeStyle;rounded=0;orthogonalLoop=1;jettySize=auto;html=1;exitX=0;exitY=0.75;exitDx=0;exitDy=0;entryX=1;entryY=0.5;entryDx=0;entryDy=0;" edge="1" parent="1" source="LTmVK6CKk13TITAyTzfu-1" target="LTmVK6CKk13TITAyTzfu-2">
          <mxGeometry x="0.3684" relative="1" as="geometry">
            <Array as="points">
              <mxPoint x="365" y="359" />
              <mxPoint x="365" y="384" />
            </Array>
            <mxPoint as="offset" />
          </mxGeometry>
        </mxCell>
        <mxCell id="LTmVK6CKk13TITAyTzfu-15" value="hasTechnicalMeasure" style="edgeStyle=orthogonalEdgeStyle;rounded=0;orthogonalLoop=1;jettySize=auto;html=1;exitX=0;exitY=0.75;exitDx=0;exitDy=0;entryX=1;entryY=0.5;entryDx=0;entryDy=0;" edge="1" parent="1" source="LTmVK6CKk13TITAyTzfu-1" target="LTmVK6CKk13TITAyTzfu-3">
          <mxGeometry x="0.4132" relative="1" as="geometry">
            <Array as="points">
              <mxPoint x="365" y="359" />
              <mxPoint x="365" y="413" />
            </Array>
            <mxPoint as="offset" />
          </mxGeometry>
        </mxCell>
        <mxCell id="LTmVK6CKk13TITAyTzfu-16" value="hasLegalMeasure" style="edgeStyle=orthogonalEdgeStyle;rounded=0;orthogonalLoop=1;jettySize=auto;html=1;exitX=0;exitY=0.75;exitDx=0;exitDy=0;entryX=1;entryY=0.5;entryDx=0;entryDy=0;" edge="1" parent="1" source="LTmVK6CKk13TITAyTzfu-1" target="LTmVK6CKk13TITAyTzfu-4">
          <mxGeometry x="0.4545" relative="1" as="geometry">
            <Array as="points">
              <mxPoint x="365" y="359" />
              <mxPoint x="365" y="444" />
            </Array>
            <mxPoint as="offset" />
          </mxGeometry>
        </mxCell>
        <mxCell id="LTmVK6CKk13TITAyTzfu-17" value="hasOrganisationalMeasure" style="edgeStyle=orthogonalEdgeStyle;rounded=0;orthogonalLoop=1;jettySize=auto;html=1;exitX=0;exitY=0.75;exitDx=0;exitDy=0;entryX=1;entryY=0.5;entryDx=0;entryDy=0;" edge="1" parent="1" source="LTmVK6CKk13TITAyTzfu-1" target="LTmVK6CKk13TITAyTzfu-5">
          <mxGeometry x="0.5061" relative="1" as="geometry">
            <Array as="points">
              <mxPoint x="365" y="359" />
              <mxPoint x="365" y="490" />
            </Array>
            <mxPoint as="offset" />
          </mxGeometry>
        </mxCell>
        <mxCell id="LTmVK6CKk13TITAyTzfu-18" value="hasRule" style="edgeStyle=orthogonalEdgeStyle;rounded=0;orthogonalLoop=1;jettySize=auto;html=1;exitX=0;exitY=0.75;exitDx=0;exitDy=0;entryX=1;entryY=0.5;entryDx=0;entryDy=0;" edge="1" parent="1" source="LTmVK6CKk13TITAyTzfu-1" target="LTmVK6CKk13TITAyTzfu-7">
          <mxGeometry x="0.4964" relative="1" as="geometry">
            <Array as="points">
              <mxPoint x="365" y="359" />
              <mxPoint x="365" y="530" />
            </Array>
            <mxPoint as="offset" />
          </mxGeometry>
        </mxCell>
        <mxCell id="LTmVK6CKk13TITAyTzfu-19" value="hasPermission" style="edgeStyle=orthogonalEdgeStyle;rounded=0;orthogonalLoop=1;jettySize=auto;html=1;exitX=0;exitY=0.75;exitDx=0;exitDy=0;entryX=1;entryY=0.5;entryDx=0;entryDy=0;" edge="1" parent="1" source="LTmVK6CKk13TITAyTzfu-1" target="LTmVK6CKk13TITAyTzfu-8">
          <mxGeometry x="0.5683" relative="1" as="geometry">
            <Array as="points">
              <mxPoint x="365" y="359" />
              <mxPoint x="365" y="560" />
            </Array>
            <mxPoint as="offset" />
          </mxGeometry>
        </mxCell>
        <mxCell id="LTmVK6CKk13TITAyTzfu-20" value="hasProhibition" style="edgeStyle=orthogonalEdgeStyle;rounded=0;orthogonalLoop=1;jettySize=auto;html=1;exitX=0;exitY=0.75;exitDx=0;exitDy=0;entryX=1;entryY=0.5;entryDx=0;entryDy=0;" edge="1" parent="1" source="LTmVK6CKk13TITAyTzfu-1" target="LTmVK6CKk13TITAyTzfu-9">
          <mxGeometry x="0.5904" relative="1" as="geometry">
            <Array as="points">
              <mxPoint x="365" y="359" />
              <mxPoint x="365" y="590" />
            </Array>
            <mxPoint as="offset" />
          </mxGeometry>
        </mxCell>
        <mxCell id="LTmVK6CKk13TITAyTzfu-21" value="hasObligation" style="edgeStyle=orthogonalEdgeStyle;rounded=0;orthogonalLoop=1;jettySize=auto;html=1;exitX=0;exitY=0.75;exitDx=0;exitDy=0;entryX=1;entryY=0.5;entryDx=0;entryDy=0;" edge="1" parent="1" source="LTmVK6CKk13TITAyTzfu-1" target="LTmVK6CKk13TITAyTzfu-10">
          <mxGeometry x="0.6104" relative="1" as="geometry">
            <Array as="points">
              <mxPoint x="365" y="359" />
              <mxPoint x="365" y="620" />
            </Array>
            <mxPoint as="offset" />
          </mxGeometry>
        </mxCell>
        <mxCell id="LTmVK6CKk13TITAyTzfu-23" value="hasLegalBasis" style="edgeStyle=orthogonalEdgeStyle;rounded=0;orthogonalLoop=1;jettySize=auto;html=1;exitX=0;exitY=0.75;exitDx=0;exitDy=0;entryX=0.5;entryY=0;entryDx=0;entryDy=0;" edge="1" parent="1" source="LTmVK6CKk13TITAyTzfu-1" target="LTmVK6CKk13TITAyTzfu-22">
          <mxGeometry x="0.3228" relative="1" as="geometry">
            <mxPoint as="offset" />
          </mxGeometry>
        </mxCell>
        <mxCell id="LTmVK6CKk13TITAyTzfu-34" value="hasApplicableLaw" style="edgeStyle=orthogonalEdgeStyle;rounded=0;orthogonalLoop=1;jettySize=auto;html=1;exitX=0.75;exitY=1;exitDx=0;exitDy=0;entryX=0.5;entryY=0;entryDx=0;entryDy=0;" edge="1" parent="1" source="LTmVK6CKk13TITAyTzfu-38" target="LTmVK6CKk13TITAyTzfu-32">
          <mxGeometry x="0.6094" relative="1" as="geometry">
            <mxPoint as="offset" />
          </mxGeometry>
        </mxCell>
        <mxCell id="LTmVK6CKk13TITAyTzfu-1" value="Process" style="rounded=0;whiteSpace=wrap;html=1;fontSize=14;fillColor=#f8cecc;strokeColor=#b85450;" vertex="1" parent="1">
          <mxGeometry x="520" y="314" width="120" height="60" as="geometry" />
        </mxCell>
        <mxCell id="LTmVK6CKk13TITAyTzfu-2" value="PhysicalMeasure" style="shape=parallelogram;perimeter=parallelogramPerimeter;whiteSpace=wrap;html=1;fixedSize=1;fillColor=#f8cecc;strokeColor=#b85450;" vertex="1" parent="1">
          <mxGeometry x="15" y="374" width="160" height="20" as="geometry" />
        </mxCell>
        <mxCell id="LTmVK6CKk13TITAyTzfu-3" value="TechnicalMeasure" style="shape=parallelogram;perimeter=parallelogramPerimeter;whiteSpace=wrap;html=1;fixedSize=1;fillColor=#dae8fc;strokeColor=#6c8ebf;" vertex="1" parent="1">
          <mxGeometry x="15" y="403" width="160" height="20" as="geometry" />
        </mxCell>
        <mxCell id="LTmVK6CKk13TITAyTzfu-6" style="edgeStyle=orthogonalEdgeStyle;rounded=0;orthogonalLoop=1;jettySize=auto;html=1;exitX=0.5;exitY=1;exitDx=0;exitDy=0;entryX=0.5;entryY=0;entryDx=0;entryDy=0;endArrow=block;endFill=0;" edge="1" parent="1" source="LTmVK6CKk13TITAyTzfu-4" target="LTmVK6CKk13TITAyTzfu-5">
          <mxGeometry relative="1" as="geometry" />
        </mxCell>
        <mxCell id="LTmVK6CKk13TITAyTzfu-4" value="LegalMeasure" style="shape=parallelogram;perimeter=parallelogramPerimeter;whiteSpace=wrap;html=1;fixedSize=1;fillColor=#f8cecc;strokeColor=#b85450;" vertex="1" parent="1">
          <mxGeometry x="15" y="434" width="160" height="20" as="geometry" />
        </mxCell>
        <mxCell id="LTmVK6CKk13TITAyTzfu-5" value="OrganisationalMeasure" style="shape=parallelogram;perimeter=parallelogramPerimeter;whiteSpace=wrap;html=1;fixedSize=1;fillColor=#dae8fc;strokeColor=#6c8ebf;" vertex="1" parent="1">
          <mxGeometry x="15" y="480" width="160" height="20" as="geometry" />
        </mxCell>
        <mxCell id="LTmVK6CKk13TITAyTzfu-7" value="Rule" style="rounded=0;whiteSpace=wrap;html=1;fillColor=#fff2cc;strokeColor=#d6b656;" vertex="1" parent="1">
          <mxGeometry x="55" y="520" width="80" height="20" as="geometry" />
        </mxCell>
        <mxCell id="LTmVK6CKk13TITAyTzfu-11" style="edgeStyle=orthogonalEdgeStyle;rounded=0;orthogonalLoop=1;jettySize=auto;html=1;exitX=0;exitY=0.5;exitDx=0;exitDy=0;entryX=0.25;entryY=1;entryDx=0;entryDy=0;endArrow=block;endFill=0;" edge="1" parent="1" source="LTmVK6CKk13TITAyTzfu-8" target="LTmVK6CKk13TITAyTzfu-7">
          <mxGeometry relative="1" as="geometry" />
        </mxCell>
        <mxCell id="LTmVK6CKk13TITAyTzfu-8" value="Permission" style="rounded=0;whiteSpace=wrap;html=1;fillColor=#fff2cc;strokeColor=#d6b656;" vertex="1" parent="1">
          <mxGeometry x="85" y="550" width="80" height="20" as="geometry" />
        </mxCell>
        <mxCell id="LTmVK6CKk13TITAyTzfu-12" style="edgeStyle=orthogonalEdgeStyle;rounded=0;orthogonalLoop=1;jettySize=auto;html=1;exitX=0;exitY=0.5;exitDx=0;exitDy=0;endArrow=block;endFill=0;entryX=0.25;entryY=1;entryDx=0;entryDy=0;" edge="1" parent="1" source="LTmVK6CKk13TITAyTzfu-9" target="LTmVK6CKk13TITAyTzfu-7">
          <mxGeometry relative="1" as="geometry">
            <mxPoint x="115" y="540" as="targetPoint" />
            <Array as="points">
              <mxPoint x="75" y="590" />
            </Array>
          </mxGeometry>
        </mxCell>
        <mxCell id="LTmVK6CKk13TITAyTzfu-9" value="Prohibition" style="rounded=0;whiteSpace=wrap;html=1;fillColor=#fff2cc;strokeColor=#d6b656;" vertex="1" parent="1">
          <mxGeometry x="85" y="580" width="80" height="20" as="geometry" />
        </mxCell>
        <mxCell id="LTmVK6CKk13TITAyTzfu-13" style="edgeStyle=orthogonalEdgeStyle;rounded=0;orthogonalLoop=1;jettySize=auto;html=1;exitX=0;exitY=0.5;exitDx=0;exitDy=0;endArrow=block;endFill=0;entryX=0.25;entryY=1;entryDx=0;entryDy=0;" edge="1" parent="1" source="LTmVK6CKk13TITAyTzfu-10" target="LTmVK6CKk13TITAyTzfu-7">
          <mxGeometry relative="1" as="geometry">
            <mxPoint x="115" y="540" as="targetPoint" />
            <Array as="points">
              <mxPoint x="75" y="620" />
            </Array>
          </mxGeometry>
        </mxCell>
        <mxCell id="LTmVK6CKk13TITAyTzfu-10" value="Obligation" style="rounded=0;whiteSpace=wrap;html=1;fillColor=#fff2cc;strokeColor=#d6b656;" vertex="1" parent="1">
          <mxGeometry x="85" y="610" width="80" height="20" as="geometry" />
        </mxCell>
        <mxCell id="LTmVK6CKk13TITAyTzfu-22" value="LegalBasis" style="shape=parallelogram;perimeter=parallelogramPerimeter;whiteSpace=wrap;html=1;fixedSize=1;fillColor=#dae8fc;strokeColor=#6c8ebf;" vertex="1" parent="1">
          <mxGeometry x="375" y="460" width="100" height="20" as="geometry" />
        </mxCell>
        <mxCell id="LTmVK6CKk13TITAyTzfu-30" style="edgeStyle=orthogonalEdgeStyle;rounded=0;orthogonalLoop=1;jettySize=auto;html=1;exitX=1;exitY=0.5;exitDx=0;exitDy=0;entryX=0.25;entryY=1;entryDx=0;entryDy=0;endArrow=block;endFill=0;" edge="1" parent="1" source="LTmVK6CKk13TITAyTzfu-24" target="LTmVK6CKk13TITAyTzfu-22">
          <mxGeometry relative="1" as="geometry" />
        </mxCell>
        <mxCell id="LTmVK6CKk13TITAyTzfu-24" value="Consent" style="rounded=0;whiteSpace=wrap;html=1;fillColor=#fff2cc;strokeColor=#d6b656;" vertex="1" parent="1">
          <mxGeometry x="85" y="640" width="80" height="20" as="geometry" />
        </mxCell>
        <mxCell id="LTmVK6CKk13TITAyTzfu-32" value="Law" style="rounded=0;whiteSpace=wrap;html=1;fillColor=#fff2cc;strokeColor=#d6b656;" vertex="1" parent="1">
          <mxGeometry x="570" y="453" width="80" height="20" as="geometry" />
        </mxCell>
        <mxCell id="LTmVK6CKk13TITAyTzfu-60" value="hasData" style="edgeStyle=orthogonalEdgeStyle;rounded=0;orthogonalLoop=1;jettySize=auto;html=1;exitX=1;exitY=0.5;exitDx=0;exitDy=0;entryX=0.5;entryY=0;entryDx=0;entryDy=0;" edge="1" parent="1" source="LTmVK6CKk13TITAyTzfu-38" target="LTmVK6CKk13TITAyTzfu-59">
          <mxGeometry x="0.84" relative="1" as="geometry">
            <mxPoint as="offset" />
          </mxGeometry>
        </mxCell>
        <mxCell id="LTmVK6CKk13TITAyTzfu-61" value="hasPersonalData" style="edgeStyle=orthogonalEdgeStyle;rounded=0;orthogonalLoop=1;jettySize=auto;html=1;exitX=1;exitY=0.5;exitDx=0;exitDy=0;entryX=0.5;entryY=0;entryDx=0;entryDy=0;" edge="1" parent="1" source="LTmVK6CKk13TITAyTzfu-38" target="LTmVK6CKk13TITAyTzfu-58">
          <mxGeometry x="0.7195" relative="1" as="geometry">
            <mxPoint as="offset" />
          </mxGeometry>
        </mxCell>
        <mxCell id="LTmVK6CKk13TITAyTzfu-84" value="hasPurpose" style="edgeStyle=orthogonalEdgeStyle;rounded=0;orthogonalLoop=1;jettySize=auto;html=1;exitX=1;exitY=0.5;exitDx=0;exitDy=0;entryX=0.5;entryY=1;entryDx=0;entryDy=0;" edge="1" parent="1" source="LTmVK6CKk13TITAyTzfu-38" target="LTmVK6CKk13TITAyTzfu-83">
          <mxGeometry x="0.7271" relative="1" as="geometry">
            <mxPoint as="offset" />
          </mxGeometry>
        </mxCell>
        <mxCell id="LTmVK6CKk13TITAyTzfu-86" value="isImplemented&lt;br&gt;UsingTechnology" style="edgeStyle=orthogonalEdgeStyle;rounded=0;orthogonalLoop=1;jettySize=auto;html=1;exitX=1;exitY=0.25;exitDx=0;exitDy=0;entryX=0;entryY=0.5;entryDx=0;entryDy=0;" edge="1" parent="1" source="LTmVK6CKk13TITAyTzfu-38" target="LTmVK6CKk13TITAyTzfu-85">
          <mxGeometry x="0.7047" relative="1" as="geometry">
            <Array as="points">
              <mxPoint x="915" y="329" />
              <mxPoint x="915" y="260" />
            </Array>
            <mxPoint as="offset" />
          </mxGeometry>
        </mxCell>
        <mxCell id="LTmVK6CKk13TITAyTzfu-118" value="hasContext" style="edgeStyle=orthogonalEdgeStyle;rounded=0;orthogonalLoop=1;jettySize=auto;html=1;exitX=0;exitY=0.25;exitDx=0;exitDy=0;entryX=1;entryY=0.5;entryDx=0;entryDy=0;" edge="1" parent="1" source="LTmVK6CKk13TITAyTzfu-38" target="LTmVK6CKk13TITAyTzfu-117">
          <mxGeometry relative="1" as="geometry" />
        </mxCell>
        <mxCell id="LTmVK6CKk13TITAyTzfu-141" value="hasEntity&lt;br&gt;isImplementedByEntity" style="edgeStyle=orthogonalEdgeStyle;rounded=0;orthogonalLoop=1;jettySize=auto;html=1;exitX=0;exitY=0.25;exitDx=0;exitDy=0;" edge="1" parent="1" source="LTmVK6CKk13TITAyTzfu-38" target="LTmVK6CKk13TITAyTzfu-139">
          <mxGeometry x="0.4" relative="1" as="geometry">
            <mxPoint as="offset" />
          </mxGeometry>
        </mxCell>
        <mxCell id="LTmVK6CKk13TITAyTzfu-154" value="hasDataSubject" style="edgeStyle=orthogonalEdgeStyle;rounded=0;orthogonalLoop=1;jettySize=auto;html=1;exitX=0.5;exitY=0;exitDx=0;exitDy=0;entryX=0.75;entryY=1;entryDx=0;entryDy=0;" edge="1" parent="1" source="LTmVK6CKk13TITAyTzfu-38" target="LTmVK6CKk13TITAyTzfu-152">
          <mxGeometry relative="1" as="geometry">
            <Array as="points">
              <mxPoint x="580" y="210" />
              <mxPoint x="555" y="210" />
            </Array>
          </mxGeometry>
        </mxCell>
        <mxCell id="LTmVK6CKk13TITAyTzfu-158" value="hasRisk" style="edgeStyle=orthogonalEdgeStyle;rounded=0;orthogonalLoop=1;jettySize=auto;html=1;exitX=0.75;exitY=0;exitDx=0;exitDy=0;entryX=0;entryY=0.5;entryDx=0;entryDy=0;" edge="1" parent="1" source="LTmVK6CKk13TITAyTzfu-38" target="LTmVK6CKk13TITAyTzfu-155">
          <mxGeometry x="-0.4607" relative="1" as="geometry">
            <mxPoint as="offset" />
          </mxGeometry>
        </mxCell>
        <mxCell id="LTmVK6CKk13TITAyTzfu-176" value="&lt;span style=&quot;color: rgb(0, 0, 0); font-family: Helvetica; font-size: 11px; font-style: normal; font-variant-ligatures: normal; font-variant-caps: normal; font-weight: 400; letter-spacing: normal; orphans: 2; text-align: center; text-indent: 0px; text-transform: none; widows: 2; word-spacing: 0px; -webkit-text-stroke-width: 0px; white-space: nowrap; background-color: rgb(255, 255, 255); text-decoration-thickness: initial; text-decoration-style: initial; text-decoration-color: initial; display: inline !important; float: none;&quot;&gt;hasLocation&lt;/span&gt;&lt;br style=&quot;forced-color-adjust: none; color: rgb(0, 0, 0); font-family: Helvetica; font-size: 11px; font-style: normal; font-variant-ligatures: normal; font-variant-caps: normal; font-weight: 400; letter-spacing: normal; orphans: 2; text-align: center; text-indent: 0px; text-transform: none; widows: 2; word-spacing: 0px; -webkit-text-stroke-width: 0px; white-space: nowrap; text-decoration-thickness: initial; text-decoration-style: initial; text-decoration-color: initial;&quot;&gt;&lt;span style=&quot;color: rgb(0, 0, 0); font-family: Helvetica; font-size: 11px; font-style: normal; font-variant-ligatures: normal; font-variant-caps: normal; font-weight: 400; letter-spacing: normal; orphans: 2; text-align: center; text-indent: 0px; text-transform: none; widows: 2; word-spacing: 0px; -webkit-text-stroke-width: 0px; white-space: nowrap; background-color: rgb(255, 255, 255); text-decoration-thickness: initial; text-decoration-style: initial; text-decoration-color: initial; display: inline !important; float: none;&quot;&gt;hasJurisdiction&lt;/span&gt;" style="edgeStyle=orthogonalEdgeStyle;rounded=0;orthogonalLoop=1;jettySize=auto;html=1;exitX=1;exitY=0.75;exitDx=0;exitDy=0;entryX=0.5;entryY=0;entryDx=0;entryDy=0;" edge="1" parent="1" source="LTmVK6CKk13TITAyTzfu-38" target="LTmVK6CKk13TITAyTzfu-172">
          <mxGeometry relative="1" as="geometry" />
        </mxCell>
        <mxCell id="LTmVK6CKk13TITAyTzfu-38" value="Process" style="shape=process;whiteSpace=wrap;html=1;backgroundOutline=1;fillColor=#f8cecc;strokeColor=#b85450;" vertex="1" parent="1">
          <mxGeometry x="520" y="314" width="120" height="60" as="geometry" />
        </mxCell>
        <mxCell id="LTmVK6CKk13TITAyTzfu-40" value="LEGAL" style="shape=cube;whiteSpace=wrap;html=1;boundedLbl=1;backgroundOutline=1;darkOpacity=0.05;darkOpacity2=0.1;fillColor=#f8cecc;strokeColor=#000000;fillStyle=solid;" vertex="1" parent="1">
          <mxGeometry x="576" y="490" width="90" height="50" as="geometry" />
        </mxCell>
        <mxCell id="LTmVK6CKk13TITAyTzfu-41" style="edgeStyle=orthogonalEdgeStyle;rounded=0;orthogonalLoop=1;jettySize=auto;html=1;exitX=0.5;exitY=1;exitDx=0;exitDy=0;entryX=0;entryY=0;entryDx=35;entryDy=0;entryPerimeter=0;endArrow=oval;endFill=0;" edge="1" parent="1" source="LTmVK6CKk13TITAyTzfu-32" target="LTmVK6CKk13TITAyTzfu-40">
          <mxGeometry relative="1" as="geometry" />
        </mxCell>
        <mxCell id="LTmVK6CKk13TITAyTzfu-42" value="EU" style="shape=cube;whiteSpace=wrap;html=1;boundedLbl=1;backgroundOutline=1;darkOpacity=0.05;darkOpacity2=0.1;fillColor=#f8cecc;strokeColor=#000000;fillStyle=solid;" vertex="1" parent="1">
          <mxGeometry x="580" y="600" width="90" height="50" as="geometry" />
        </mxCell>
        <mxCell id="LTmVK6CKk13TITAyTzfu-49" value="NIS2" style="shape=cube;whiteSpace=wrap;html=1;boundedLbl=1;backgroundOutline=1;darkOpacity=0.05;darkOpacity2=0.1;fillColor=#f8cecc;strokeColor=#000000;fillStyle=solid;" vertex="1" parent="1">
          <mxGeometry x="520" y="700" width="90" height="40" as="geometry" />
        </mxCell>
        <mxCell id="LTmVK6CKk13TITAyTzfu-55" style="edgeStyle=orthogonalEdgeStyle;rounded=0;orthogonalLoop=1;jettySize=auto;html=1;exitX=0.5;exitY=0;exitDx=0;exitDy=0;entryX=0;entryY=0.5;entryDx=0;entryDy=0;endArrow=block;endFill=0;" edge="1" parent="1" source="LTmVK6CKk13TITAyTzfu-54">
          <mxGeometry relative="1" as="geometry">
            <mxPoint x="659.9999999999998" y="424" as="targetPoint" />
            <Array as="points">
              <mxPoint x="633" y="424" />
            </Array>
          </mxGeometry>
        </mxCell>
        <mxCell id="LTmVK6CKk13TITAyTzfu-62" style="edgeStyle=orthogonalEdgeStyle;rounded=0;orthogonalLoop=1;jettySize=auto;html=1;exitX=1;exitY=0.5;exitDx=0;exitDy=0;entryX=0.5;entryY=1;entryDx=0;entryDy=0;endArrow=block;endFill=0;" edge="1" parent="1" source="LTmVK6CKk13TITAyTzfu-58" target="LTmVK6CKk13TITAyTzfu-59">
          <mxGeometry relative="1" as="geometry">
            <Array as="points">
              <mxPoint x="995" y="464" />
            </Array>
          </mxGeometry>
        </mxCell>
        <mxCell id="LTmVK6CKk13TITAyTzfu-58" value="PersonalData" style="rounded=0;whiteSpace=wrap;html=1;fillColor=#fff2cc;strokeColor=#d6b656;shape=parallelogram;perimeter=parallelogramPerimeter;fixedSize=1;" vertex="1" parent="1">
          <mxGeometry x="862" y="454" width="105" height="20" as="geometry" />
        </mxCell>
        <mxCell id="LTmVK6CKk13TITAyTzfu-59" value="Data" style="rounded=0;whiteSpace=wrap;html=1;fillColor=#f8cecc;strokeColor=#b85450;" vertex="1" parent="1">
          <mxGeometry x="955" y="414" width="80" height="20" as="geometry" />
        </mxCell>
        <mxCell id="LTmVK6CKk13TITAyTzfu-63" value="DGA" style="shape=cube;whiteSpace=wrap;html=1;boundedLbl=1;backgroundOutline=1;darkOpacity=0.05;darkOpacity2=0.1;fillColor=#f8cecc;strokeColor=#000000;fillStyle=solid;" vertex="1" parent="1">
          <mxGeometry x="525" y="750" width="90" height="40" as="geometry" />
        </mxCell>
        <mxCell id="LTmVK6CKk13TITAyTzfu-64" value="AI Act" style="shape=cube;whiteSpace=wrap;html=1;boundedLbl=1;backgroundOutline=1;darkOpacity=0.05;darkOpacity2=0.1;fillColor=#f8cecc;strokeColor=#000000;fillStyle=solid;" vertex="1" parent="1">
          <mxGeometry x="674" y="750" width="90" height="40" as="geometry" />
        </mxCell>
        <mxCell id="LTmVK6CKk13TITAyTzfu-65" value="GDPR" style="shape=cube;whiteSpace=wrap;html=1;boundedLbl=1;backgroundOutline=1;darkOpacity=0.05;darkOpacity2=0.1;fillColor=#fff2cc;strokeColor=#000000;fillStyle=auto;" vertex="1" parent="1">
          <mxGeometry x="674" y="700" width="90" height="40" as="geometry" />
        </mxCell>
        <mxCell id="LTmVK6CKk13TITAyTzfu-71" style="edgeStyle=orthogonalEdgeStyle;rounded=0;orthogonalLoop=1;jettySize=auto;html=1;exitX=1;exitY=0.5;exitDx=0;exitDy=0;entryX=0.25;entryY=1;entryDx=0;entryDy=0;endArrow=block;endFill=0;" edge="1" parent="1" source="LTmVK6CKk13TITAyTzfu-67" target="LTmVK6CKk13TITAyTzfu-22">
          <mxGeometry relative="1" as="geometry" />
        </mxCell>
        <mxCell id="LTmVK6CKk13TITAyTzfu-67" value="Contract" style="rounded=0;whiteSpace=wrap;html=1;fillColor=#fff2cc;strokeColor=#d6b656;" vertex="1" parent="1">
          <mxGeometry x="85" y="670" width="80" height="20" as="geometry" />
        </mxCell>
        <mxCell id="LTmVK6CKk13TITAyTzfu-72" style="edgeStyle=orthogonalEdgeStyle;rounded=0;orthogonalLoop=1;jettySize=auto;html=1;exitX=1;exitY=0.5;exitDx=0;exitDy=0;entryX=0.25;entryY=1;entryDx=0;entryDy=0;endArrow=block;endFill=0;" edge="1" parent="1" source="LTmVK6CKk13TITAyTzfu-68" target="LTmVK6CKk13TITAyTzfu-22">
          <mxGeometry relative="1" as="geometry" />
        </mxCell>
        <mxCell id="LTmVK6CKk13TITAyTzfu-68" value="LegitimateInterest" style="rounded=0;whiteSpace=wrap;html=1;fillColor=#fff2cc;strokeColor=#d6b656;" vertex="1" parent="1">
          <mxGeometry x="55" y="700" width="110" height="20" as="geometry" />
        </mxCell>
        <mxCell id="LTmVK6CKk13TITAyTzfu-73" style="edgeStyle=orthogonalEdgeStyle;rounded=0;orthogonalLoop=1;jettySize=auto;html=1;exitX=1;exitY=0.5;exitDx=0;exitDy=0;entryX=0.25;entryY=1;entryDx=0;entryDy=0;endArrow=block;endFill=0;" edge="1" parent="1" source="LTmVK6CKk13TITAyTzfu-69" target="LTmVK6CKk13TITAyTzfu-22">
          <mxGeometry relative="1" as="geometry" />
        </mxCell>
        <mxCell id="LTmVK6CKk13TITAyTzfu-69" value="PublicInterest" style="rounded=0;whiteSpace=wrap;html=1;fillColor=#fff2cc;strokeColor=#d6b656;" vertex="1" parent="1">
          <mxGeometry x="55" y="730" width="110" height="20" as="geometry" />
        </mxCell>
        <mxCell id="LTmVK6CKk13TITAyTzfu-74" style="edgeStyle=orthogonalEdgeStyle;rounded=0;orthogonalLoop=1;jettySize=auto;html=1;exitX=1;exitY=0.5;exitDx=0;exitDy=0;entryX=0.25;entryY=1;entryDx=0;entryDy=0;endArrow=block;endFill=0;" edge="1" parent="1" source="LTmVK6CKk13TITAyTzfu-70" target="LTmVK6CKk13TITAyTzfu-22">
          <mxGeometry relative="1" as="geometry" />
        </mxCell>
        <mxCell id="LTmVK6CKk13TITAyTzfu-70" value="LegalObligation" style="rounded=0;whiteSpace=wrap;html=1;fillColor=#fff2cc;strokeColor=#d6b656;" vertex="1" parent="1">
          <mxGeometry x="55" y="760" width="110" height="20" as="geometry" />
        </mxCell>
        <mxCell id="LTmVK6CKk13TITAyTzfu-76" style="edgeStyle=orthogonalEdgeStyle;rounded=0;orthogonalLoop=1;jettySize=auto;html=1;exitX=1;exitY=0.5;exitDx=0;exitDy=0;entryX=0.25;entryY=1;entryDx=0;entryDy=0;endArrow=block;endFill=0;" edge="1" parent="1" source="LTmVK6CKk13TITAyTzfu-75" target="LTmVK6CKk13TITAyTzfu-22">
          <mxGeometry relative="1" as="geometry" />
        </mxCell>
        <mxCell id="LTmVK6CKk13TITAyTzfu-75" value="VitalInterest" style="rounded=0;whiteSpace=wrap;html=1;fillColor=#fff2cc;strokeColor=#d6b656;" vertex="1" parent="1">
          <mxGeometry x="55" y="790" width="110" height="20" as="geometry" />
        </mxCell>
        <mxCell id="LTmVK6CKk13TITAyTzfu-77" value="PD" style="shape=cube;whiteSpace=wrap;html=1;boundedLbl=1;backgroundOutline=1;darkOpacity=0.05;darkOpacity2=0.1;fillColor=#f8cecc;strokeColor=#000000;fillStyle=solid;" vertex="1" parent="1">
          <mxGeometry x="873" y="510" width="90" height="50" as="geometry" />
        </mxCell>
        <mxCell id="LTmVK6CKk13TITAyTzfu-78" style="edgeStyle=orthogonalEdgeStyle;rounded=0;orthogonalLoop=1;jettySize=auto;html=1;exitX=0.5;exitY=1;exitDx=0;exitDy=0;entryX=0.467;entryY=0;entryDx=0;entryDy=0;entryPerimeter=0;endArrow=oval;endFill=0;" edge="1" parent="1" source="LTmVK6CKk13TITAyTzfu-58" target="LTmVK6CKk13TITAyTzfu-77">
          <mxGeometry relative="1" as="geometry" />
        </mxCell>
        <mxCell id="LTmVK6CKk13TITAyTzfu-82" style="edgeStyle=orthogonalEdgeStyle;rounded=0;orthogonalLoop=1;jettySize=auto;html=1;exitX=0;exitY=0.5;exitDx=0;exitDy=0;entryX=0.75;entryY=1;entryDx=0;entryDy=0;endArrow=block;endFill=0;" edge="1" parent="1" source="LTmVK6CKk13TITAyTzfu-79" target="LTmVK6CKk13TITAyTzfu-58">
          <mxGeometry relative="1" as="geometry" />
        </mxCell>
        <mxCell id="LTmVK6CKk13TITAyTzfu-79" value="SensitiveData" style="rounded=0;whiteSpace=wrap;html=1;fillColor=#fff2cc;strokeColor=#d6b656;" vertex="1" parent="1">
          <mxGeometry x="974" y="490" width="80" height="20" as="geometry" />
        </mxCell>
        <mxCell id="LTmVK6CKk13TITAyTzfu-81" style="edgeStyle=orthogonalEdgeStyle;rounded=0;orthogonalLoop=1;jettySize=auto;html=1;exitX=0.25;exitY=0;exitDx=0;exitDy=0;entryX=0.5;entryY=1;entryDx=0;entryDy=0;endArrow=block;endFill=0;" edge="1" parent="1" source="LTmVK6CKk13TITAyTzfu-80" target="LTmVK6CKk13TITAyTzfu-79">
          <mxGeometry relative="1" as="geometry" />
        </mxCell>
        <mxCell id="LTmVK6CKk13TITAyTzfu-80" value="SpecialCategoryPersonalData" style="rounded=0;whiteSpace=wrap;html=1;fillColor=#fff2cc;strokeColor=#d6b656;" vertex="1" parent="1">
          <mxGeometry x="974" y="530" width="170" height="20" as="geometry" />
        </mxCell>
        <mxCell id="LTmVK6CKk13TITAyTzfu-83" value="Purpose" style="rounded=0;whiteSpace=wrap;html=1;fillColor=#fff2cc;strokeColor=#d6b656;shape=parallelogram;perimeter=parallelogramPerimeter;fixedSize=1;" vertex="1" parent="1">
          <mxGeometry x="1045" y="300" width="80" height="20" as="geometry" />
        </mxCell>
        <mxCell id="LTmVK6CKk13TITAyTzfu-85" value="Technology" style="rounded=0;whiteSpace=wrap;html=1;fillColor=#fff2cc;strokeColor=#d6b656;" vertex="1" parent="1">
          <mxGeometry x="1045" y="250" width="80" height="20" as="geometry" />
        </mxCell>
        <mxCell id="LTmVK6CKk13TITAyTzfu-87" value="TECH" style="shape=cube;whiteSpace=wrap;html=1;boundedLbl=1;backgroundOutline=1;darkOpacity=0.05;darkOpacity2=0.1;fillColor=#f8cecc;strokeColor=#000000;fillStyle=solid;" vertex="1" parent="1">
          <mxGeometry x="1030" y="173" width="90" height="50" as="geometry" />
        </mxCell>
        <mxCell id="LTmVK6CKk13TITAyTzfu-88" style="edgeStyle=orthogonalEdgeStyle;rounded=0;orthogonalLoop=1;jettySize=auto;html=1;exitX=0.5;exitY=0;exitDx=0;exitDy=0;entryX=0;entryY=0;entryDx=55;entryDy=50;entryPerimeter=0;endArrow=oval;endFill=0;" edge="1" parent="1" source="LTmVK6CKk13TITAyTzfu-85" target="LTmVK6CKk13TITAyTzfu-87">
          <mxGeometry relative="1" as="geometry" />
        </mxCell>
        <mxCell id="LTmVK6CKk13TITAyTzfu-89" value="AI" style="shape=cube;whiteSpace=wrap;html=1;boundedLbl=1;backgroundOutline=1;darkOpacity=0.05;darkOpacity2=0.1;fillColor=#f8cecc;strokeColor=#000000;fillStyle=solid;" vertex="1" parent="1">
          <mxGeometry x="1025" y="100" width="90" height="50" as="geometry" />
        </mxCell>
        <mxCell id="LTmVK6CKk13TITAyTzfu-90" style="edgeStyle=orthogonalEdgeStyle;rounded=0;orthogonalLoop=1;jettySize=auto;html=1;exitX=0;exitY=0;exitDx=35;exitDy=0;exitPerimeter=0;entryX=0.448;entryY=0.999;entryDx=0;entryDy=0;entryPerimeter=0;endArrow=oval;endFill=0;" edge="1" parent="1" source="LTmVK6CKk13TITAyTzfu-87" target="LTmVK6CKk13TITAyTzfu-89">
          <mxGeometry relative="1" as="geometry" />
        </mxCell>
        <mxCell id="LTmVK6CKk13TITAyTzfu-94" style="edgeStyle=orthogonalEdgeStyle;rounded=0;orthogonalLoop=1;jettySize=auto;html=1;entryX=0;entryY=0;entryDx=35;entryDy=0;entryPerimeter=0;endArrow=oval;endFill=0;exitX=0;exitY=0;exitDx=55;exitDy=50;exitPerimeter=0;" edge="1" parent="1" source="LTmVK6CKk13TITAyTzfu-40" target="LTmVK6CKk13TITAyTzfu-42">
          <mxGeometry relative="1" as="geometry">
            <mxPoint x="615" y="540" as="sourcePoint" />
          </mxGeometry>
        </mxCell>
        <mxCell id="LTmVK6CKk13TITAyTzfu-95" style="edgeStyle=orthogonalEdgeStyle;rounded=0;orthogonalLoop=1;jettySize=auto;html=1;exitX=0;exitY=0;exitDx=55;exitDy=50;exitPerimeter=0;entryX=0;entryY=0;entryDx=90;entryDy=30;entryPerimeter=0;endArrow=oval;endFill=0;" edge="1" parent="1" source="LTmVK6CKk13TITAyTzfu-42" target="LTmVK6CKk13TITAyTzfu-49">
          <mxGeometry relative="1" as="geometry" />
        </mxCell>
        <mxCell id="LTmVK6CKk13TITAyTzfu-96" style="edgeStyle=orthogonalEdgeStyle;rounded=0;orthogonalLoop=1;jettySize=auto;html=1;exitX=0;exitY=0;exitDx=55;exitDy=50;exitPerimeter=0;entryX=0;entryY=0;entryDx=0;entryDy=10;entryPerimeter=0;endArrow=oval;endFill=0;" edge="1" parent="1" source="LTmVK6CKk13TITAyTzfu-42" target="LTmVK6CKk13TITAyTzfu-65">
          <mxGeometry relative="1" as="geometry">
            <Array as="points">
              <mxPoint x="635" y="660" />
            </Array>
          </mxGeometry>
        </mxCell>
        <mxCell id="LTmVK6CKk13TITAyTzfu-97" style="edgeStyle=orthogonalEdgeStyle;rounded=0;orthogonalLoop=1;jettySize=auto;html=1;exitX=0;exitY=0;exitDx=55;exitDy=50;exitPerimeter=0;entryX=0;entryY=0;entryDx=90;entryDy=30;entryPerimeter=0;endArrow=oval;endFill=0;" edge="1" parent="1" source="LTmVK6CKk13TITAyTzfu-42" target="LTmVK6CKk13TITAyTzfu-63">
          <mxGeometry relative="1" as="geometry" />
        </mxCell>
        <mxCell id="LTmVK6CKk13TITAyTzfu-98" style="edgeStyle=orthogonalEdgeStyle;rounded=0;orthogonalLoop=1;jettySize=auto;html=1;exitX=0;exitY=0;exitDx=55;exitDy=50;exitPerimeter=0;entryX=-0.006;entryY=0.297;entryDx=0;entryDy=0;entryPerimeter=0;endArrow=oval;endFill=0;" edge="1" parent="1" source="LTmVK6CKk13TITAyTzfu-42" target="LTmVK6CKk13TITAyTzfu-64">
          <mxGeometry relative="1" as="geometry" />
        </mxCell>
        <mxCell id="LTmVK6CKk13TITAyTzfu-119" style="edgeStyle=orthogonalEdgeStyle;rounded=0;orthogonalLoop=1;jettySize=auto;html=1;exitX=1;exitY=0.5;exitDx=0;exitDy=0;entryX=0;entryY=0.5;entryDx=0;entryDy=0;endArrow=block;endFill=0;" edge="1" parent="1" source="LTmVK6CKk13TITAyTzfu-99" target="LTmVK6CKk13TITAyTzfu-117">
          <mxGeometry relative="1" as="geometry" />
        </mxCell>
        <mxCell id="LTmVK6CKk13TITAyTzfu-99" value="ProcessingContext" style="rounded=0;whiteSpace=wrap;html=1;fillColor=#fff2cc;strokeColor=#d6b656;" vertex="1" parent="1">
          <mxGeometry x="15" y="320" width="110" height="20" as="geometry" />
        </mxCell>
        <mxCell id="LTmVK6CKk13TITAyTzfu-126" style="edgeStyle=orthogonalEdgeStyle;rounded=0;orthogonalLoop=1;jettySize=auto;html=1;exitX=0;exitY=0.5;exitDx=0;exitDy=0;entryX=0.25;entryY=0;entryDx=0;entryDy=0;endArrow=block;endFill=0;" edge="1" parent="1" source="LTmVK6CKk13TITAyTzfu-101" target="LTmVK6CKk13TITAyTzfu-99">
          <mxGeometry relative="1" as="geometry" />
        </mxCell>
        <mxCell id="LTmVK6CKk13TITAyTzfu-101" value="HumanInvolvement" style="shape=parallelogram;perimeter=parallelogramPerimeter;whiteSpace=wrap;html=1;fixedSize=1;fillColor=#f8cecc;strokeColor=#b85450;" vertex="1" parent="1">
          <mxGeometry x="65" y="290" width="160" height="20" as="geometry" />
        </mxCell>
        <mxCell id="LTmVK6CKk13TITAyTzfu-125" style="edgeStyle=orthogonalEdgeStyle;rounded=0;orthogonalLoop=1;jettySize=auto;html=1;exitX=0;exitY=0.5;exitDx=0;exitDy=0;entryX=0.25;entryY=0;entryDx=0;entryDy=0;endArrow=block;endFill=0;" edge="1" parent="1" source="LTmVK6CKk13TITAyTzfu-102" target="LTmVK6CKk13TITAyTzfu-99">
          <mxGeometry relative="1" as="geometry">
            <Array as="points">
              <mxPoint x="43" y="270" />
              <mxPoint x="43" y="300" />
            </Array>
          </mxGeometry>
        </mxCell>
        <mxCell id="LTmVK6CKk13TITAyTzfu-102" value="AutomationLevel" style="shape=parallelogram;perimeter=parallelogramPerimeter;whiteSpace=wrap;html=1;fixedSize=1;fillColor=#f8cecc;strokeColor=#b85450;" vertex="1" parent="1">
          <mxGeometry x="65" y="260" width="160" height="20" as="geometry" />
        </mxCell>
        <mxCell id="LTmVK6CKk13TITAyTzfu-124" style="edgeStyle=orthogonalEdgeStyle;rounded=0;orthogonalLoop=1;jettySize=auto;html=1;exitX=0;exitY=0.5;exitDx=0;exitDy=0;entryX=0.25;entryY=0;entryDx=0;entryDy=0;endArrow=block;endFill=0;" edge="1" parent="1" source="LTmVK6CKk13TITAyTzfu-103" target="LTmVK6CKk13TITAyTzfu-99">
          <mxGeometry relative="1" as="geometry">
            <Array as="points">
              <mxPoint x="43" y="240" />
              <mxPoint x="43" y="285" />
            </Array>
          </mxGeometry>
        </mxCell>
        <mxCell id="LTmVK6CKk13TITAyTzfu-103" value="StorageCondition" style="shape=parallelogram;perimeter=parallelogramPerimeter;whiteSpace=wrap;html=1;fixedSize=1;fillColor=#fff2cc;strokeColor=#d6b656;" vertex="1" parent="1">
          <mxGeometry x="65" y="230" width="160" height="20" as="geometry" />
        </mxCell>
        <mxCell id="LTmVK6CKk13TITAyTzfu-123" style="edgeStyle=orthogonalEdgeStyle;rounded=0;orthogonalLoop=1;jettySize=auto;html=1;exitX=0;exitY=0.5;exitDx=0;exitDy=0;entryX=0.25;entryY=0;entryDx=0;entryDy=0;endArrow=block;endFill=0;" edge="1" parent="1" source="LTmVK6CKk13TITAyTzfu-104" target="LTmVK6CKk13TITAyTzfu-99">
          <mxGeometry relative="1" as="geometry">
            <Array as="points">
              <mxPoint x="43" y="210" />
              <mxPoint x="43" y="270" />
            </Array>
          </mxGeometry>
        </mxCell>
        <mxCell id="LTmVK6CKk13TITAyTzfu-104" value="DataSubjectScale" style="shape=parallelogram;perimeter=parallelogramPerimeter;whiteSpace=wrap;html=1;fixedSize=1;fillColor=#fff2cc;strokeColor=#d6b656;" vertex="1" parent="1">
          <mxGeometry x="65" y="200" width="160" height="20" as="geometry" />
        </mxCell>
        <mxCell id="LTmVK6CKk13TITAyTzfu-122" style="edgeStyle=orthogonalEdgeStyle;rounded=0;orthogonalLoop=1;jettySize=auto;html=1;exitX=0;exitY=0.5;exitDx=0;exitDy=0;entryX=0.25;entryY=0;entryDx=0;entryDy=0;endArrow=block;endFill=0;" edge="1" parent="1" source="LTmVK6CKk13TITAyTzfu-105" target="LTmVK6CKk13TITAyTzfu-99">
          <mxGeometry relative="1" as="geometry">
            <Array as="points">
              <mxPoint x="43" y="180" />
              <mxPoint x="43" y="255" />
            </Array>
          </mxGeometry>
        </mxCell>
        <mxCell id="LTmVK6CKk13TITAyTzfu-105" value="DataVolume" style="shape=parallelogram;perimeter=parallelogramPerimeter;whiteSpace=wrap;html=1;fixedSize=1;fillColor=#fff2cc;strokeColor=#d6b656;" vertex="1" parent="1">
          <mxGeometry x="65" y="170" width="160" height="20" as="geometry" />
        </mxCell>
        <mxCell id="LTmVK6CKk13TITAyTzfu-121" style="edgeStyle=orthogonalEdgeStyle;rounded=0;orthogonalLoop=1;jettySize=auto;html=1;exitX=0;exitY=0.5;exitDx=0;exitDy=0;entryX=0.25;entryY=0;entryDx=0;entryDy=0;endArrow=block;endFill=0;" edge="1" parent="1" source="LTmVK6CKk13TITAyTzfu-106" target="LTmVK6CKk13TITAyTzfu-99">
          <mxGeometry relative="1" as="geometry">
            <Array as="points">
              <mxPoint x="43" y="150" />
              <mxPoint x="43" y="240" />
            </Array>
          </mxGeometry>
        </mxCell>
        <mxCell id="LTmVK6CKk13TITAyTzfu-106" value="GeographicScale" style="shape=parallelogram;perimeter=parallelogramPerimeter;whiteSpace=wrap;html=1;fixedSize=1;fillColor=#fff2cc;strokeColor=#d6b656;" vertex="1" parent="1">
          <mxGeometry x="65" y="140" width="160" height="20" as="geometry" />
        </mxCell>
        <mxCell id="LTmVK6CKk13TITAyTzfu-120" style="edgeStyle=orthogonalEdgeStyle;rounded=0;orthogonalLoop=1;jettySize=auto;html=1;exitX=0;exitY=0.5;exitDx=0;exitDy=0;entryX=0.25;entryY=0;entryDx=0;entryDy=0;endArrow=block;endFill=0;" edge="1" parent="1" source="LTmVK6CKk13TITAyTzfu-107" target="LTmVK6CKk13TITAyTzfu-99">
          <mxGeometry relative="1" as="geometry">
            <Array as="points">
              <mxPoint x="43" y="120" />
              <mxPoint x="43" y="225" />
            </Array>
          </mxGeometry>
        </mxCell>
        <mxCell id="LTmVK6CKk13TITAyTzfu-107" value="ProcessingScale" style="shape=parallelogram;perimeter=parallelogramPerimeter;whiteSpace=wrap;html=1;fixedSize=1;fillColor=#fff2cc;strokeColor=#d6b656;" vertex="1" parent="1">
          <mxGeometry x="65" y="110" width="160" height="20" as="geometry" />
        </mxCell>
        <mxCell id="LTmVK6CKk13TITAyTzfu-135" style="edgeStyle=orthogonalEdgeStyle;rounded=0;orthogonalLoop=1;jettySize=auto;html=1;exitX=0;exitY=0.5;exitDx=0;exitDy=0;entryX=0.5;entryY=0;entryDx=0;entryDy=0;endArrow=block;endFill=0;" edge="1" parent="1" source="LTmVK6CKk13TITAyTzfu-108" target="LTmVK6CKk13TITAyTzfu-117">
          <mxGeometry relative="1" as="geometry" />
        </mxCell>
        <mxCell id="LTmVK6CKk13TITAyTzfu-108" value="Necessity" style="shape=parallelogram;perimeter=parallelogramPerimeter;whiteSpace=wrap;html=1;fixedSize=1;fillColor=#fff2cc;strokeColor=#d6b656;" vertex="1" parent="1">
          <mxGeometry x="286" y="280" width="100" height="20" as="geometry" />
        </mxCell>
        <mxCell id="LTmVK6CKk13TITAyTzfu-134" style="edgeStyle=orthogonalEdgeStyle;rounded=0;orthogonalLoop=1;jettySize=auto;html=1;exitX=0;exitY=0.5;exitDx=0;exitDy=0;entryX=0.5;entryY=0;entryDx=0;entryDy=0;endArrow=block;endFill=0;" edge="1" parent="1" source="LTmVK6CKk13TITAyTzfu-109" target="LTmVK6CKk13TITAyTzfu-117">
          <mxGeometry relative="1" as="geometry">
            <Array as="points">
              <mxPoint x="270" y="266" />
            </Array>
          </mxGeometry>
        </mxCell>
        <mxCell id="LTmVK6CKk13TITAyTzfu-109" value="Frequency" style="shape=parallelogram;perimeter=parallelogramPerimeter;whiteSpace=wrap;html=1;fixedSize=1;fillColor=#fff2cc;strokeColor=#d6b656;" vertex="1" parent="1">
          <mxGeometry x="286" y="256" width="100" height="20" as="geometry" />
        </mxCell>
        <mxCell id="LTmVK6CKk13TITAyTzfu-132" style="edgeStyle=orthogonalEdgeStyle;rounded=0;orthogonalLoop=1;jettySize=auto;html=1;exitX=0;exitY=0.5;exitDx=0;exitDy=0;entryX=0.5;entryY=0;entryDx=0;entryDy=0;endArrow=block;endFill=0;" edge="1" parent="1" source="LTmVK6CKk13TITAyTzfu-110" target="LTmVK6CKk13TITAyTzfu-117">
          <mxGeometry relative="1" as="geometry">
            <Array as="points">
              <mxPoint x="270" y="242" />
            </Array>
          </mxGeometry>
        </mxCell>
        <mxCell id="LTmVK6CKk13TITAyTzfu-110" value="Duration" style="shape=parallelogram;perimeter=parallelogramPerimeter;whiteSpace=wrap;html=1;fixedSize=1;fillColor=#fff2cc;strokeColor=#d6b656;" vertex="1" parent="1">
          <mxGeometry x="286" y="232" width="100" height="20" as="geometry" />
        </mxCell>
        <mxCell id="LTmVK6CKk13TITAyTzfu-136" style="edgeStyle=orthogonalEdgeStyle;rounded=0;orthogonalLoop=1;jettySize=auto;html=1;exitX=0;exitY=0.5;exitDx=0;exitDy=0;entryX=0.5;entryY=0;entryDx=0;entryDy=0;endArrow=block;endFill=0;" edge="1" parent="1" source="LTmVK6CKk13TITAyTzfu-111" target="LTmVK6CKk13TITAyTzfu-117">
          <mxGeometry relative="1" as="geometry">
            <Array as="points">
              <mxPoint x="270" y="218" />
            </Array>
          </mxGeometry>
        </mxCell>
        <mxCell id="LTmVK6CKk13TITAyTzfu-111" value="Scope" style="shape=parallelogram;perimeter=parallelogramPerimeter;whiteSpace=wrap;html=1;fixedSize=1;fillColor=#fff2cc;strokeColor=#d6b656;" vertex="1" parent="1">
          <mxGeometry x="286" y="208" width="100" height="20" as="geometry" />
        </mxCell>
        <mxCell id="LTmVK6CKk13TITAyTzfu-137" style="edgeStyle=orthogonalEdgeStyle;rounded=0;orthogonalLoop=1;jettySize=auto;html=1;exitX=0;exitY=0.5;exitDx=0;exitDy=0;entryX=0.5;entryY=0;entryDx=0;entryDy=0;endArrow=block;endFill=0;" edge="1" parent="1" source="LTmVK6CKk13TITAyTzfu-112" target="LTmVK6CKk13TITAyTzfu-117">
          <mxGeometry relative="1" as="geometry">
            <Array as="points">
              <mxPoint x="270" y="194" />
            </Array>
          </mxGeometry>
        </mxCell>
        <mxCell id="LTmVK6CKk13TITAyTzfu-112" value="Importance" style="shape=parallelogram;perimeter=parallelogramPerimeter;whiteSpace=wrap;html=1;fixedSize=1;fillColor=#fff2cc;strokeColor=#d6b656;" vertex="1" parent="1">
          <mxGeometry x="286" y="184" width="100" height="20" as="geometry" />
        </mxCell>
        <mxCell id="LTmVK6CKk13TITAyTzfu-138" style="edgeStyle=orthogonalEdgeStyle;rounded=0;orthogonalLoop=1;jettySize=auto;html=1;exitX=0;exitY=0.5;exitDx=0;exitDy=0;entryX=0.5;entryY=0;entryDx=0;entryDy=0;endArrow=block;endFill=0;" edge="1" parent="1" source="LTmVK6CKk13TITAyTzfu-113" target="LTmVK6CKk13TITAyTzfu-117">
          <mxGeometry relative="1" as="geometry">
            <Array as="points">
              <mxPoint x="270" y="170" />
            </Array>
          </mxGeometry>
        </mxCell>
        <mxCell id="LTmVK6CKk13TITAyTzfu-113" value="Justification" style="shape=parallelogram;perimeter=parallelogramPerimeter;whiteSpace=wrap;html=1;fixedSize=1;fillColor=#fff2cc;strokeColor=#d6b656;" vertex="1" parent="1">
          <mxGeometry x="285" y="160" width="100" height="20" as="geometry" />
        </mxCell>
        <mxCell id="LTmVK6CKk13TITAyTzfu-114" value="Justifications" style="shape=cube;whiteSpace=wrap;html=1;boundedLbl=1;backgroundOutline=1;darkOpacity=0.05;darkOpacity2=0.1;fillColor=#f8cecc;strokeColor=#000000;fillStyle=solid;" vertex="1" parent="1">
          <mxGeometry x="275" y="80" width="100" height="50" as="geometry" />
        </mxCell>
        <mxCell id="LTmVK6CKk13TITAyTzfu-115" style="edgeStyle=orthogonalEdgeStyle;rounded=0;orthogonalLoop=1;jettySize=auto;html=1;exitX=0.5;exitY=0;exitDx=0;exitDy=0;entryX=0;entryY=0;entryDx=60;entryDy=50;entryPerimeter=0;endArrow=oval;endFill=0;" edge="1" parent="1" source="LTmVK6CKk13TITAyTzfu-113" target="LTmVK6CKk13TITAyTzfu-114">
          <mxGeometry relative="1" as="geometry" />
        </mxCell>
        <mxCell id="LTmVK6CKk13TITAyTzfu-117" value="ProcessingContext" style="rounded=0;whiteSpace=wrap;html=1;fillColor=#fff2cc;strokeColor=#d6b656;" vertex="1" parent="1">
          <mxGeometry x="215" y="320" width="110" height="20" as="geometry" />
        </mxCell>
        <mxCell id="LTmVK6CKk13TITAyTzfu-139" value="Entity" style="rounded=0;whiteSpace=wrap;html=1;fillColor=#fff2cc;strokeColor=#d6b656;" vertex="1" parent="1">
          <mxGeometry x="435" y="234" width="80" height="20" as="geometry" />
        </mxCell>
        <mxCell id="LTmVK6CKk13TITAyTzfu-142" style="edgeStyle=orthogonalEdgeStyle;rounded=0;orthogonalLoop=1;jettySize=auto;html=1;exitX=0.5;exitY=1;exitDx=0;exitDy=0;entryX=0.5;entryY=0;entryDx=0;entryDy=0;endArrow=block;endFill=0;" edge="1" parent="1" source="LTmVK6CKk13TITAyTzfu-140" target="LTmVK6CKk13TITAyTzfu-139">
          <mxGeometry relative="1" as="geometry" />
        </mxCell>
        <mxCell id="LTmVK6CKk13TITAyTzfu-140" value="LegalEntity" style="rounded=0;whiteSpace=wrap;html=1;fillColor=#fff2cc;strokeColor=#d6b656;shape=parallelogram;perimeter=parallelogramPerimeter;fixedSize=1;" vertex="1" parent="1">
          <mxGeometry x="428" y="200" width="95" height="20" as="geometry" />
        </mxCell>
        <mxCell id="LTmVK6CKk13TITAyTzfu-149" style="edgeStyle=orthogonalEdgeStyle;rounded=0;orthogonalLoop=1;jettySize=auto;html=1;exitX=0.5;exitY=1;exitDx=0;exitDy=0;entryX=0.5;entryY=0;entryDx=0;entryDy=0;endArrow=block;endFill=0;" edge="1" parent="1" source="LTmVK6CKk13TITAyTzfu-146" target="LTmVK6CKk13TITAyTzfu-147">
          <mxGeometry relative="1" as="geometry" />
        </mxCell>
        <mxCell id="LTmVK6CKk13TITAyTzfu-146" value="Subsidiary" style="rounded=0;whiteSpace=wrap;html=1;fillColor=#f8cecc;strokeColor=#b85450;" vertex="1" parent="1">
          <mxGeometry x="480" y="70" width="80" height="20" as="geometry" />
        </mxCell>
        <mxCell id="LTmVK6CKk13TITAyTzfu-148" style="edgeStyle=orthogonalEdgeStyle;rounded=0;orthogonalLoop=1;jettySize=auto;html=1;exitX=0;exitY=0.5;exitDx=0;exitDy=0;entryX=0.282;entryY=0.014;entryDx=0;entryDy=0;endArrow=block;endFill=0;entryPerimeter=0;" edge="1" parent="1" source="LTmVK6CKk13TITAyTzfu-147" target="LTmVK6CKk13TITAyTzfu-140">
          <mxGeometry relative="1" as="geometry">
            <Array as="points">
              <mxPoint x="455" y="120" />
            </Array>
          </mxGeometry>
        </mxCell>
        <mxCell id="LTmVK6CKk13TITAyTzfu-147" value="Organisation" style="shape=parallelogram;perimeter=parallelogramPerimeter;whiteSpace=wrap;html=1;fixedSize=1;fillColor=#fff2cc;strokeColor=#d6b656;" vertex="1" parent="1">
          <mxGeometry x="470" y="110" width="100" height="20" as="geometry" />
        </mxCell>
        <mxCell id="LTmVK6CKk13TITAyTzfu-151" style="edgeStyle=orthogonalEdgeStyle;rounded=0;orthogonalLoop=1;jettySize=auto;html=1;exitX=0;exitY=0.5;exitDx=0;exitDy=0;endArrow=block;endFill=0;" edge="1" parent="1" source="LTmVK6CKk13TITAyTzfu-150">
          <mxGeometry relative="1" as="geometry">
            <mxPoint x="455" y="200" as="targetPoint" />
          </mxGeometry>
        </mxCell>
        <mxCell id="LTmVK6CKk13TITAyTzfu-150" value="Authority" style="rounded=0;whiteSpace=wrap;html=1;fillColor=#dae8fc;strokeColor=#6c8ebf;" vertex="1" parent="1">
          <mxGeometry x="480" y="140" width="80" height="20" as="geometry" />
        </mxCell>
        <mxCell id="LTmVK6CKk13TITAyTzfu-153" style="edgeStyle=orthogonalEdgeStyle;rounded=0;orthogonalLoop=1;jettySize=auto;html=1;exitX=0;exitY=0.5;exitDx=0;exitDy=0;entryX=0.285;entryY=0.028;entryDx=0;entryDy=0;endArrow=block;endFill=0;entryPerimeter=0;" edge="1" parent="1" source="LTmVK6CKk13TITAyTzfu-152" target="LTmVK6CKk13TITAyTzfu-140">
          <mxGeometry relative="1" as="geometry">
            <Array as="points">
              <mxPoint x="455" y="180" />
            </Array>
          </mxGeometry>
        </mxCell>
        <mxCell id="LTmVK6CKk13TITAyTzfu-152" value="DataSubject" style="rounded=0;whiteSpace=wrap;html=1;fillColor=#fff2cc;strokeColor=#d6b656;shape=parallelogram;perimeter=parallelogramPerimeter;fixedSize=1;" vertex="1" parent="1">
          <mxGeometry x="480" y="170" width="100" height="20" as="geometry" />
        </mxCell>
        <mxCell id="LTmVK6CKk13TITAyTzfu-167" value="hasSeverity" style="edgeStyle=orthogonalEdgeStyle;rounded=0;orthogonalLoop=1;jettySize=auto;html=1;exitX=0.25;exitY=0;exitDx=0;exitDy=0;entryX=0;entryY=0.5;entryDx=0;entryDy=0;" edge="1" parent="1" source="LTmVK6CKk13TITAyTzfu-155" target="LTmVK6CKk13TITAyTzfu-161">
          <mxGeometry x="0.1549" relative="1" as="geometry">
            <mxPoint as="offset" />
          </mxGeometry>
        </mxCell>
        <mxCell id="LTmVK6CKk13TITAyTzfu-168" value="hasLikelihood" style="edgeStyle=orthogonalEdgeStyle;rounded=0;orthogonalLoop=1;jettySize=auto;html=1;exitX=0.25;exitY=0;exitDx=0;exitDy=0;entryX=0;entryY=0.5;entryDx=0;entryDy=0;" edge="1" parent="1" source="LTmVK6CKk13TITAyTzfu-155" target="LTmVK6CKk13TITAyTzfu-163">
          <mxGeometry x="0.2429" relative="1" as="geometry">
            <mxPoint as="offset" />
          </mxGeometry>
        </mxCell>
        <mxCell id="LTmVK6CKk13TITAyTzfu-169" value="hasConsequence" style="edgeStyle=orthogonalEdgeStyle;rounded=0;orthogonalLoop=1;jettySize=auto;html=1;exitX=0.25;exitY=0;exitDx=0;exitDy=0;entryX=0;entryY=0.5;entryDx=0;entryDy=0;" edge="1" parent="1" source="LTmVK6CKk13TITAyTzfu-155" target="LTmVK6CKk13TITAyTzfu-164">
          <mxGeometry x="0.3576" relative="1" as="geometry">
            <mxPoint as="offset" />
          </mxGeometry>
        </mxCell>
        <mxCell id="LTmVK6CKk13TITAyTzfu-170" value="hasImpact" style="edgeStyle=orthogonalEdgeStyle;rounded=0;orthogonalLoop=1;jettySize=auto;html=1;exitX=0.25;exitY=0;exitDx=0;exitDy=0;entryX=0;entryY=0.5;entryDx=0;entryDy=0;" edge="1" parent="1" source="LTmVK6CKk13TITAyTzfu-155" target="LTmVK6CKk13TITAyTzfu-165">
          <mxGeometry x="0.4783" relative="1" as="geometry">
            <mxPoint as="offset" />
          </mxGeometry>
        </mxCell>
        <mxCell id="LTmVK6CKk13TITAyTzfu-155" value="Risk" style="rounded=0;whiteSpace=wrap;html=1;fillColor=#dae8fc;strokeColor=#6c8ebf;" vertex="1" parent="1">
          <mxGeometry x="655" y="260" width="80" height="20" as="geometry" />
        </mxCell>
        <mxCell id="LTmVK6CKk13TITAyTzfu-157" value="RISK" style="shape=cube;whiteSpace=wrap;html=1;boundedLbl=1;backgroundOutline=1;darkOpacity=0.05;darkOpacity2=0.1;fillColor=#f8cecc;strokeColor=#000000;fillStyle=solid;" vertex="1" parent="1">
          <mxGeometry x="620" y="60" width="90" height="50" as="geometry" />
        </mxCell>
        <mxCell id="LTmVK6CKk13TITAyTzfu-160" value="mitigatesRisk" style="edgeStyle=orthogonalEdgeStyle;rounded=0;orthogonalLoop=1;jettySize=auto;html=1;exitX=0.5;exitY=0;exitDx=0;exitDy=0;entryX=1;entryY=0.5;entryDx=0;entryDy=0;" edge="1" parent="1" source="LTmVK6CKk13TITAyTzfu-159" target="LTmVK6CKk13TITAyTzfu-155">
          <mxGeometry relative="1" as="geometry" />
        </mxCell>
        <mxCell id="LTmVK6CKk13TITAyTzfu-159" value="RiskMitigationMeasure" style="rounded=0;whiteSpace=wrap;html=1;fillColor=#dae8fc;strokeColor=#6c8ebf;" vertex="1" parent="1">
          <mxGeometry x="768" y="290" width="130" height="20" as="geometry" />
        </mxCell>
        <mxCell id="LTmVK6CKk13TITAyTzfu-161" value="Severity" style="rounded=0;whiteSpace=wrap;html=1;fillColor=#fff2cc;strokeColor=#d6b656;" vertex="1" parent="1">
          <mxGeometry x="795" y="228" width="80" height="20" as="geometry" />
        </mxCell>
        <mxCell id="LTmVK6CKk13TITAyTzfu-162" style="edgeStyle=orthogonalEdgeStyle;rounded=0;orthogonalLoop=1;jettySize=auto;html=1;exitX=0.25;exitY=0;exitDx=0;exitDy=0;entryX=0;entryY=0;entryDx=55;entryDy=50;entryPerimeter=0;endArrow=oval;endFill=0;" edge="1" parent="1" source="LTmVK6CKk13TITAyTzfu-155" target="LTmVK6CKk13TITAyTzfu-157">
          <mxGeometry relative="1" as="geometry" />
        </mxCell>
        <mxCell id="LTmVK6CKk13TITAyTzfu-163" value="Likelihood" style="rounded=0;whiteSpace=wrap;html=1;fillColor=#fff2cc;strokeColor=#d6b656;" vertex="1" parent="1">
          <mxGeometry x="795" y="203" width="80" height="20" as="geometry" />
        </mxCell>
        <mxCell id="LTmVK6CKk13TITAyTzfu-164" value="Consequence" style="rounded=0;whiteSpace=wrap;html=1;fillColor=#fff2cc;strokeColor=#d6b656;" vertex="1" parent="1">
          <mxGeometry x="795" y="178" width="80" height="20" as="geometry" />
        </mxCell>
        <mxCell id="LTmVK6CKk13TITAyTzfu-166" style="edgeStyle=orthogonalEdgeStyle;rounded=0;orthogonalLoop=1;jettySize=auto;html=1;exitX=0.5;exitY=1;exitDx=0;exitDy=0;entryX=0.5;entryY=0;entryDx=0;entryDy=0;endArrow=block;endFill=0;" edge="1" parent="1" source="LTmVK6CKk13TITAyTzfu-165" target="LTmVK6CKk13TITAyTzfu-164">
          <mxGeometry relative="1" as="geometry" />
        </mxCell>
        <mxCell id="LTmVK6CKk13TITAyTzfu-165" value="Impact" style="rounded=0;whiteSpace=wrap;html=1;fillColor=#fff2cc;strokeColor=#d6b656;" vertex="1" parent="1">
          <mxGeometry x="795" y="140" width="80" height="20" as="geometry" />
        </mxCell>
        <mxCell id="LTmVK6CKk13TITAyTzfu-172" value="Location" style="rounded=0;whiteSpace=wrap;html=1;fillColor=#fff2cc;strokeColor=#d6b656;" vertex="1" parent="1">
          <mxGeometry x="735" y="438" width="80" height="20" as="geometry" />
        </mxCell>
        <mxCell id="LTmVK6CKk13TITAyTzfu-173" value="LOC" style="shape=cube;whiteSpace=wrap;html=1;boundedLbl=1;backgroundOutline=1;darkOpacity=0.05;darkOpacity2=0.1;fillColor=#f8cecc;strokeColor=#000000;fillStyle=solid;" vertex="1" parent="1">
          <mxGeometry x="740" y="495" width="90" height="50" as="geometry" />
        </mxCell>
        <mxCell id="LTmVK6CKk13TITAyTzfu-174" style="edgeStyle=orthogonalEdgeStyle;rounded=0;orthogonalLoop=1;jettySize=auto;html=1;exitX=0.5;exitY=1;exitDx=0;exitDy=0;entryX=0;entryY=0;entryDx=35;entryDy=0;entryPerimeter=0;endArrow=oval;endFill=0;" edge="1" parent="1" source="LTmVK6CKk13TITAyTzfu-172" target="LTmVK6CKk13TITAyTzfu-173">
          <mxGeometry relative="1" as="geometry" />
        </mxCell>
        <mxCell id="LTmVK6CKk13TITAyTzfu-177" style="edgeStyle=orthogonalEdgeStyle;rounded=0;orthogonalLoop=1;jettySize=auto;html=1;exitX=0.75;exitY=1;exitDx=0;exitDy=0;entryX=0;entryY=0.5;entryDx=0;entryDy=0;endArrow=block;endFill=0;" edge="1" parent="1" source="LTmVK6CKk13TITAyTzfu-175" target="LTmVK6CKk13TITAyTzfu-172">
          <mxGeometry relative="1" as="geometry" />
        </mxCell>
        <mxCell id="LTmVK6CKk13TITAyTzfu-175" value="LocationLocality" style="rounded=0;whiteSpace=wrap;html=1;fillColor=#fff2cc;strokeColor=#d6b656;" vertex="1" parent="1">
          <mxGeometry x="640" y="394" width="95" height="20" as="geometry" />
        </mxCell>
        <mxCell id="LTmVK6CKk13TITAyTzfu-188" value="DE" style="shape=cube;whiteSpace=wrap;html=1;boundedLbl=1;backgroundOutline=1;darkOpacity=0.05;darkOpacity2=0.1;fillColor=#f8cecc;strokeColor=#000000;fillStyle=solid;" vertex="1" parent="1">
          <mxGeometry x="430" y="500" width="90" height="40" as="geometry" />
        </mxCell>
        <mxCell id="LTmVK6CKk13TITAyTzfu-189" value="IE" style="shape=cube;whiteSpace=wrap;html=1;boundedLbl=1;backgroundOutline=1;darkOpacity=0.05;darkOpacity2=0.1;fillColor=#f8cecc;strokeColor=#000000;fillStyle=solid;" vertex="1" parent="1">
          <mxGeometry x="430" y="550" width="90" height="40" as="geometry" />
        </mxCell>
        <mxCell id="LTmVK6CKk13TITAyTzfu-190" value="GB" style="shape=cube;whiteSpace=wrap;html=1;boundedLbl=1;backgroundOutline=1;darkOpacity=0.05;darkOpacity2=0.1;fillColor=#f8cecc;strokeColor=#000000;fillStyle=solid;" vertex="1" parent="1">
          <mxGeometry x="430" y="600" width="90" height="40" as="geometry" />
        </mxCell>
        <mxCell id="LTmVK6CKk13TITAyTzfu-191" value="US" style="shape=cube;whiteSpace=wrap;html=1;boundedLbl=1;backgroundOutline=1;darkOpacity=0.05;darkOpacity2=0.1;fillColor=#f8cecc;strokeColor=#000000;fillStyle=solid;" vertex="1" parent="1">
          <mxGeometry x="429" y="650" width="90" height="40" as="geometry" />
        </mxCell>
        <mxCell id="LTmVK6CKk13TITAyTzfu-192" style="edgeStyle=orthogonalEdgeStyle;rounded=0;orthogonalLoop=1;jettySize=auto;html=1;exitX=0;exitY=0;exitDx=90;exitDy=30;exitPerimeter=0;entryX=0;entryY=0;entryDx=0;entryDy=15;entryPerimeter=0;endArrow=none;endFill=0;startArrow=oval;startFill=0;" edge="1" parent="1" source="LTmVK6CKk13TITAyTzfu-188" target="LTmVK6CKk13TITAyTzfu-40">
          <mxGeometry relative="1" as="geometry">
            <Array as="points">
              <mxPoint x="550" y="530" />
              <mxPoint x="550" y="505" />
            </Array>
          </mxGeometry>
        </mxCell>
        <mxCell id="LTmVK6CKk13TITAyTzfu-193" style="edgeStyle=orthogonalEdgeStyle;rounded=0;orthogonalLoop=1;jettySize=auto;html=1;exitX=0;exitY=0;exitDx=90;exitDy=30;exitPerimeter=0;entryX=0;entryY=0;entryDx=0;entryDy=15;entryPerimeter=0;endArrow=none;endFill=0;startArrow=oval;startFill=0;" edge="1" parent="1" source="LTmVK6CKk13TITAyTzfu-189" target="LTmVK6CKk13TITAyTzfu-40">
          <mxGeometry relative="1" as="geometry">
            <Array as="points">
              <mxPoint x="550" y="580" />
              <mxPoint x="550" y="505" />
            </Array>
          </mxGeometry>
        </mxCell>
        <mxCell id="LTmVK6CKk13TITAyTzfu-194" style="edgeStyle=orthogonalEdgeStyle;rounded=0;orthogonalLoop=1;jettySize=auto;html=1;exitX=0;exitY=0;exitDx=90;exitDy=30;exitPerimeter=0;entryX=0;entryY=0;entryDx=0;entryDy=15;entryPerimeter=0;endArrow=none;endFill=0;startArrow=oval;startFill=0;" edge="1" parent="1" source="LTmVK6CKk13TITAyTzfu-190" target="LTmVK6CKk13TITAyTzfu-40">
          <mxGeometry relative="1" as="geometry">
            <Array as="points">
              <mxPoint x="550" y="630" />
              <mxPoint x="550" y="505" />
            </Array>
          </mxGeometry>
        </mxCell>
        <mxCell id="LTmVK6CKk13TITAyTzfu-195" style="edgeStyle=orthogonalEdgeStyle;rounded=0;orthogonalLoop=1;jettySize=auto;html=1;exitX=0;exitY=0;exitDx=90;exitDy=30;exitPerimeter=0;entryX=0;entryY=0;entryDx=0;entryDy=15;entryPerimeter=0;endArrow=none;endFill=0;startArrow=oval;startFill=0;" edge="1" parent="1" source="LTmVK6CKk13TITAyTzfu-191" target="LTmVK6CKk13TITAyTzfu-40">
          <mxGeometry relative="1" as="geometry">
            <Array as="points">
              <mxPoint x="550" y="680" />
              <mxPoint x="550" y="505" />
            </Array>
          </mxGeometry>
        </mxCell>
        <mxCell id="LTmVK6CKk13TITAyTzfu-198" value="" style="group" vertex="1" connectable="0" parent="1">
          <mxGeometry x="790" y="610" width="360" height="180" as="geometry" />
        </mxCell>
        <mxCell id="LTmVK6CKk13TITAyTzfu-92" value="&lt;b&gt;&lt;u&gt;Legend&lt;/u&gt;&lt;/b&gt;" style="rounded=0;whiteSpace=wrap;html=1;dashed=1;dashPattern=12 12;verticalAlign=top;" vertex="1" parent="LTmVK6CKk13TITAyTzfu-198">
          <mxGeometry width="360" height="180" as="geometry" />
        </mxCell>
        <mxCell id="LTmVK6CKk13TITAyTzfu-93" value="extension" style="shape=cube;whiteSpace=wrap;html=1;boundedLbl=1;backgroundOutline=1;darkOpacity=0.05;darkOpacity2=0.1;fillColor=#f5f5f5;strokeColor=#000000;fillStyle=solid;fontColor=#333333;" vertex="1" parent="LTmVK6CKk13TITAyTzfu-198">
          <mxGeometry x="222" y="40" width="90" height="40" as="geometry" />
        </mxCell>
        <mxCell id="LTmVK6CKk13TITAyTzfu-178" value="relation" style="endArrow=classic;html=1;rounded=0;" edge="1" parent="LTmVK6CKk13TITAyTzfu-198">
          <mxGeometry width="50" height="50" relative="1" as="geometry">
            <mxPoint x="219.5" y="110" as="sourcePoint" />
            <mxPoint x="314.5" y="110" as="targetPoint" />
          </mxGeometry>
        </mxCell>
        <mxCell id="LTmVK6CKk13TITAyTzfu-179" value="subclass of" style="endArrow=block;html=1;rounded=0;endFill=0;" edge="1" parent="LTmVK6CKk13TITAyTzfu-198">
          <mxGeometry x="-0.0015" width="50" height="50" relative="1" as="geometry">
            <mxPoint x="219.5" y="132" as="sourcePoint" />
            <mxPoint x="314.5" y="132" as="targetPoint" />
            <mxPoint as="offset" />
          </mxGeometry>
        </mxCell>
        <mxCell id="LTmVK6CKk13TITAyTzfu-180" value="extended in" style="endArrow=oval;html=1;rounded=0;endFill=0;" edge="1" parent="LTmVK6CKk13TITAyTzfu-198">
          <mxGeometry x="0.0526" width="50" height="50" relative="1" as="geometry">
            <mxPoint x="217" y="160" as="sourcePoint" />
            <mxPoint x="312" y="160" as="targetPoint" />
            <mxPoint as="offset" />
          </mxGeometry>
        </mxCell>
        <mxCell id="LTmVK6CKk13TITAyTzfu-181" value="concept from DPV 1.0" style="rounded=0;whiteSpace=wrap;html=1;fillColor=#fff2cc;strokeColor=#d6b656;" vertex="1" parent="LTmVK6CKk13TITAyTzfu-198">
          <mxGeometry x="31" y="40" width="135" height="20" as="geometry" />
        </mxCell>
        <mxCell id="LTmVK6CKk13TITAyTzfu-182" value="expanded scope for data and technologies" style="rounded=0;whiteSpace=wrap;html=1;fillColor=#dae8fc;strokeColor=#6c8ebf;" vertex="1" parent="LTmVK6CKk13TITAyTzfu-198">
          <mxGeometry x="31" y="70" width="135" height="30" as="geometry" />
        </mxCell>
        <mxCell id="LTmVK6CKk13TITAyTzfu-183" value="new concept in DPV 2.0" style="rounded=0;whiteSpace=wrap;html=1;fillColor=#f8cecc;strokeColor=#b85450;" vertex="1" parent="LTmVK6CKk13TITAyTzfu-198">
          <mxGeometry x="31" y="110" width="135" height="20" as="geometry" />
        </mxCell>
        <mxCell id="LTmVK6CKk13TITAyTzfu-197" value="taxonomy provided" style="rounded=0;whiteSpace=wrap;html=1;shape=parallelogram;perimeter=parallelogramPerimeter;fixedSize=1;fillColor=#f5f5f5;fontColor=#333333;strokeColor=#666666;" vertex="1" parent="LTmVK6CKk13TITAyTzfu-198">
          <mxGeometry x="31" y="140" width="135" height="20" as="geometry" />
        </mxCell>
      </root>
    </mxGraphModel>
  </diagram>
</mxfile>
